<svg width="49" height="49" viewBox="0 0 49 49" fill="none" xmlns="http://www.w3.org/2000/svg">
<g clip-path="url(#clip0_6662_4336)">
<path d="M24.4621 18.3388C26.2254 18.3379 27.9743 18.656 29.6244 19.2777C30.246 20.9283 30.5646 22.6777 30.5648 24.4415L30.5648 24.4621C30.5625 26.2784 30.2305 28.0187 29.6252 29.6244C27.9749 30.2465 26.2257 30.5649 24.4621 30.5643L24.4407 30.5643C22.6777 30.5651 20.9291 30.2474 19.2792 29.6263C18.6565 27.9758 18.3378 26.2261 18.3386 24.4619L18.3386 24.4413C18.3377 22.6774 18.6563 20.9278 19.279 19.2775C20.9288 18.6557 22.6775 18.3377 24.4405 18.3386L24.4619 18.3386L24.4621 18.3388ZM20.3762 0.339656L20.3762 14.6124L10.2837 4.52066C9.17103 5.31275 8.12637 6.19632 7.16063 7.16217L7.15987 7.16217C6.19516 8.12805 5.31238 9.17242 4.52065 10.2845L14.6132 20.377L0.34041 20.377C0.114603 21.7193 0.0007416 23.078 1.06827e-06 24.4392L1.06937e-06 24.4644C0.000765237 25.849 0.118438 27.2051 0.340411 28.5266L14.6132 28.5266L4.52065 38.6191C5.31217 39.7314 6.19558 40.7753 7.16159 41.7399L7.16541 41.7453C8.12995 42.7095 9.17298 43.5918 10.2837 44.3831L20.3762 34.2899L20.3762 48.5624C20.3762 48.5624 23.0569 48.9028 24.443 48.9028L24.4598 48.9028C25.8459 48.9028 27.2043 48.7853 28.5266 48.5624L28.5266 34.2897L38.6191 44.3829C40.8472 42.7952 42.7952 40.8472 44.3829 38.6191L34.2897 28.5266L48.5632 28.5266C48.7879 27.1858 48.9015 25.8287 48.9028 24.4692L48.9028 24.4346C48.9016 23.0751 48.788 21.718 48.5632 20.3772L34.2897 20.3772L44.3829 10.2837C43.5909 9.17189 42.7079 8.12777 41.743 7.16217L41.7407 7.15988C40.7749 6.19536 39.7308 5.3126 38.6191 4.52065L28.5266 14.6139L28.5266 0.339656C27.2066 0.117492 25.8522 0.00153853 24.4692 1.03745e-05L24.4336 1.03761e-05C23.0506 0.00153865 21.6962 0.117492 20.3762 0.339656V0.339656Z" fill="#FF4A00"/>
</g>
<defs>
<clipPath id="clip0_6662_4336">
<rect width="48.9028" height="48.9028" fill="white" transform="translate(2.13761e-06 48.9028) rotate(-90)"/>
</clipPath>
</defs>
</svg>
